<svg xmlns="http://www.w3.org/2000/svg" width="440" height="192" class="fsoc-logo">
    <style>line, path, circle,rect,polygon {
                          stroke: #3f3f46;
                          stroke-width: 2;
                          stroke-opacity: 1;
                          fill-opacity: 1;
                          stroke-linecap: round;
                          stroke-linejoin: miter;
                        }

                    text {
                        /* This fix the spacing bug in svg text*/
                        white-space: pre;
                        fill: #3f3f46;
                        }
                        rect.backdrop{
                            stroke: none;
                            fill: white;
                            fill-opacity: 0;
                        }
                        .broken{
                            stroke-dasharray: 8;
                        }
                        .filled{
                            fill: #3f3f46;
                        }
                        .bg_filled{
                            fill: white;
                            fill-opacity: 0;
                        }
                        .nofill{
                            fill: white;
                            fill-opacity: 0;
                        }

                        text {
                         font-family: monospace;
                         font-size: 14px;
                        }

                        .end_marked_arrow{
                            marker-end: url(#arrow);
                         }
                        .start_marked_arrow{
                            marker-start: url(#arrow);
                         }

                        .end_marked_diamond{
                            marker-end: url(#diamond);
                         }
                        .start_marked_diamond{
                            marker-start: url(#diamond);
                         }

                        .end_marked_circle{
                            marker-end: url(#circle);
                         }
                        .start_marked_circle{
                            marker-start: url(#circle);
                         }

                        .end_marked_open_circle{
                            marker-end: url(#open_circle);
                         }
                        .start_marked_open_circle{
                            marker-start: url(#open_circle);
                         }

                        .end_marked_big_open_circle{
                            marker-end: url(#big_open_circle);
                         }
                        .start_marked_big_open_circle{
                            marker-start: url(#big_open_circle);
                         }

                         
                        </style>
    <defs>
        <marker id="arrow" viewBox="-2 -2 8 8" refX="4" refY="2" markerWidth="7" markerHeight="7" orient="auto-start-reverse">
            <polygon points="0,0 0,4 4,2 0,0"></polygon>
        </marker>
        <marker id="diamond" viewBox="-2 -2 8 8" refX="4" refY="2" markerWidth="7" markerHeight="7" orient="auto-start-reverse">
            <polygon points="0,2 2,0 4,2 2,4 0,2"></polygon>
        </marker>
        <marker id="circle" viewBox="0 0 8 8" refX="4" refY="4" markerWidth="7" markerHeight="7" orient="auto-start-reverse">
            <circle cx="4" cy="4" r="2" class="filled"></circle>
        </marker>
        <marker id="open_circle" viewBox="0 0 8 8" refX="4" refY="4" markerWidth="7" markerHeight="7" orient="auto-start-reverse">
            <circle cx="4" cy="4" r="2" class="bg_filled"></circle>
        </marker>
        <marker id="big_open_circle" viewBox="0 0 8 8" refX="4" refY="4" markerWidth="7" markerHeight="7" orient="auto-start-reverse">
            <circle cx="4" cy="4" r="3" class="bg_filled"></circle>
        </marker>
    </defs>
    <rect class="backdrop" x="0" y="0" width="440" height="192"></rect>
    <g>
        <line x1="80" y1="16" x2="96" y2="16" class="solid"></line>
        <line x1="80" y1="16" x2="32" y2="112" class="solid"></line>
        <line x1="80" y1="16" x2="104" y2="64" class="solid"></line>
        <line x1="96" y1="16" x2="120" y2="64" class="solid"></line>
        <line x1="104" y1="64" x2="112" y2="80" class="solid"></line>
        <line x1="112" y1="80" x2="128" y2="80" class="solid"></line>
        <line x1="120" y1="64" x2="128" y2="80" class="solid"></line>
        <line x1="32" y1="112" x2="8" y2="160" class="solid"></line>
        <line x1="8" y1="160" x2="16" y2="176" class="solid"></line>
        <line x1="80" y1="48" x2="56" y2="96" class="solid"></line>
        <line x1="80" y1="48" x2="104" y2="96" class="solid"></line>
        <line x1="88" y1="64" x2="72" y2="96" class="solid"></line>
        <line x1="56" y1="96" x2="88" y2="96" class="solid"></line>
        <line x1="112" y1="80" x2="104" y2="96" class="solid"></line>
        <line x1="104" y1="96" x2="120" y2="96" class="solid"></line>
        <line x1="128" y1="80" x2="120" y2="96" class="solid"></line>
        <line x1="48" y1="112" x2="80" y2="112" class="solid"></line>
        <line x1="88" y1="96" x2="80" y2="112" class="solid"></line>
        <line x1="88" y1="96" x2="96" y2="112" class="solid"></line>
        <line x1="48" y1="112" x2="24" y2="160" class="solid"></line>
        <line x1="48" y1="112" x2="56" y2="128" class="solid"></line>
        <line x1="56" y1="128" x2="88" y2="128" class="solid"></line>
        <line x1="80" y1="112" x2="88" y2="128" class="solid"></line>
        <line x1="96" y1="112" x2="88" y2="128" class="solid"></line>
        <line x1="56" y1="128" x2="32" y2="176" class="solid"></line>
        <line x1="24" y1="160" x2="16" y2="176" class="solid"></line>
        <line x1="16" y1="176" x2="32" y2="176" class="solid"></line>
    </g>
    <g>
        <line x1="168" y1="16" x2="184" y2="16" class="solid"></line>
        <line x1="168" y1="16" x2="144" y2="64" class="solid"></line>
        <line x1="184" y1="16" x2="160" y2="64" class="solid"></line>
        <line x1="184" y1="16" x2="208" y2="64" class="solid"></line>
        <line x1="208" y1="64" x2="224" y2="64" class="solid"></line>
        <line x1="144" y1="64" x2="136" y2="80" class="solid"></line>
        <line x1="160" y1="64" x2="152" y2="80" class="solid"></line>
        <line x1="136" y1="80" x2="160" y2="128" class="solid"></line>
        <line x1="152" y1="80" x2="176" y2="128" class="solid"></line>
        <line x1="176" y1="128" x2="160" y2="160" class="solid"></line>
        <line x1="184" y1="48" x2="168" y2="80" class="solid"></line>
        <line x1="184" y1="48" x2="200" y2="80" class="solid"></line>
        <line x1="176" y1="64" x2="192" y2="96" class="solid"></line>
        <line x1="200" y1="80" x2="232" y2="80" class="solid"></line>
        <line x1="224" y1="64" x2="232" y2="80" class="solid"></line>
        <line x1="168" y1="80" x2="192" y2="128" class="solid"></line>
        <line x1="200" y1="80" x2="192" y2="96" class="solid"></line>
        <line x1="192" y1="96" x2="224" y2="96" class="solid"></line>
        <line x1="232" y1="80" x2="224" y2="96" class="solid"></line>
        <line x1="192" y1="128" x2="168" y2="176" class="solid"></line>
        <line x1="112" y1="128" x2="128" y2="128" class="solid"></line>
        <line x1="112" y1="128" x2="104" y2="144" class="solid"></line>
        <line x1="104" y1="144" x2="120" y2="144" class="solid"></line>
        <line x1="128" y1="128" x2="120" y2="144" class="solid"></line>
        <line x1="128" y1="128" x2="136" y2="144" class="solid"></line>
        <line x1="136" y1="144" x2="152" y2="144" class="solid"></line>
        <line x1="160" y1="128" x2="152" y2="144" class="solid"></line>
        <line x1="104" y1="144" x2="120" y2="176" class="solid"></line>
        <line x1="120" y1="144" x2="128" y2="160" class="solid"></line>
        <line x1="136" y1="144" x2="128" y2="160" class="solid"></line>
        <line x1="128" y1="160" x2="160" y2="160" class="solid"></line>
        <line x1="120" y1="176" x2="168" y2="176" class="solid"></line>
        <line x1="160" y1="160" x2="168" y2="176" class="solid"></line>
    </g>
    <g>
        <line x1="272" y1="16" x2="288" y2="16" class="solid"></line>
        <line x1="272" y1="16" x2="224" y2="112" class="solid"></line>
        <line x1="272" y1="16" x2="312" y2="96" class="solid"></line>
        <line x1="288" y1="16" x2="328" y2="96" class="solid"></line>
        <line x1="312" y1="96" x2="328" y2="96" class="solid"></line>
        <line x1="312" y1="96" x2="288" y2="144" class="solid"></line>
        <line x1="328" y1="96" x2="288" y2="176" class="solid"></line>
        <line x1="224" y1="112" x2="200" y2="160" class="solid"></line>
        <line x1="272" y1="48" x2="224" y2="144" class="solid"></line>
        <line x1="272" y1="48" x2="296" y2="96" class="solid"></line>
        <line x1="280" y1="64" x2="232" y2="160" class="solid"></line>
        <line x1="296" y1="96" x2="272" y2="144" class="solid"></line>
        <line x1="240" y1="144" x2="272" y2="144" class="solid"></line>
        <line x1="224" y1="144" x2="208" y2="176" class="solid"></line>
        <line x1="232" y1="160" x2="280" y2="160" class="solid"></line>
        <line x1="272" y1="144" x2="280" y2="160" class="solid"></line>
        <line x1="288" y1="144" x2="280" y2="160" class="solid"></line>
        <line x1="200" y1="160" x2="208" y2="176" class="solid"></line>
        <line x1="208" y1="176" x2="288" y2="176" class="solid"></line>
    </g>
    <g>
        <line x1="376" y1="16" x2="392" y2="16" class="solid"></line>
        <line x1="376" y1="16" x2="328" y2="112" class="solid"></line>
        <line x1="376" y1="16" x2="416" y2="96" class="solid"></line>
        <line x1="392" y1="16" x2="432" y2="96" class="solid"></line>
        <line x1="416" y1="96" x2="432" y2="96" class="solid"></line>
        <line x1="328" y1="112" x2="304" y2="160" class="solid"></line>
        <line x1="376" y1="48" x2="328" y2="144" class="solid"></line>
        <line x1="376" y1="48" x2="400" y2="96" class="solid"></line>
        <line x1="384" y1="64" x2="336" y2="160" class="solid"></line>
        <line x1="400" y1="96" x2="408" y2="112" class="solid"></line>
        <line x1="416" y1="96" x2="408" y2="112" class="solid"></line>
        <line x1="408" y1="112" x2="424" y2="112" class="solid"></line>
        <line x1="432" y1="96" x2="424" y2="112" class="solid"></line>
        <line x1="344" y1="144" x2="416" y2="144" class="solid"></line>
        <line x1="328" y1="144" x2="312" y2="176" class="solid"></line>
        <line x1="336" y1="160" x2="424" y2="160" class="solid"></line>
        <line x1="416" y1="144" x2="424" y2="160" class="solid"></line>
        <line x1="304" y1="160" x2="312" y2="176" class="solid"></line>
        <line x1="312" y1="176" x2="416" y2="176" class="solid"></line>
        <line x1="424" y1="160" x2="416" y2="176" class="solid"></line>
    </g>
</svg>